<?xml version="1.0" standalone="no"?><!DOCTYPE svg PUBLIC "-//W3C//DTD SVG 1.1//EN" "http://www.w3.org/Graphics/SVG/1.1/DTD/svg11.dtd"><svg t="1686732299377" class="icon" viewBox="0 0 1024 1024" version="1.1" xmlns="http://www.w3.org/2000/svg" p-id="884" xmlns:xlink="http://www.w3.org/1999/xlink" width="200" height="200"><path d="M256.019691 1023.921237H67.854473A16.658411 16.658411 0 0 1 51.235443 1007.262826V332.774402a332.774402 332.774402 0 0 1 665.548804 0v674.488424a16.697792 16.697792 0 0 1-16.658411 16.658411H512v-332.774402H320.999308a39.381586 39.381586 0 0 1-39.381586-39.381586v-126.021075a39.381586 39.381586 0 0 1 39.381586-39.381587h191.000692v-153.588185a127.990155 127.990155 0 0 0-255.980309 0V1023.921237z m551.342204 0a39.381586 39.381586 0 0 1-39.381586-39.381586V295.361895a39.381586 39.381586 0 0 1 39.381586-39.381586h126.021076a39.381586 39.381586 0 0 1 39.381586 39.381586V984.539651a39.381586 39.381586 0 0 1-39.381586 39.381586z m-39.381586-921.529113a102.392124 102.392124 0 1 1 102.392124 102.392123 102.392124 102.392124 0 0 1-102.392124-102.392123z" p-id="885"></path></svg>